<svg width="285" height="80" viewBox="0 0 285 80" fill="none" xmlns="http://www.w3.org/2000/svg">
<g clip-path="url(#clip0_76_5312)">
<path d="M260.904 78.0668H266.616V57.4354C266.616 51.2246 269.185 47.5839 273.539 47.5839C274.799 47.5445 276.026 47.9884 276.968 48.8246C277.91 49.6609 278.497 50.826 278.608 52.0811C278.702 52.9108 278.75 53.7451 278.751 54.5801V78.0668H284.463V53.0092C284.463 48.8687 284.034 47.2978 282.821 45.5127C281.178 43.2288 278.751 42.0861 275.467 42.0861C271.398 42.0861 268.614 43.6571 266.33 47.2978V43.0862H260.904V78.0668ZM243.7 78.0668H249.411V58.506C249.411 56.864 249.411 55.6507 249.482 55.0794C249.706 53.0853 250.675 51.2494 252.195 49.9393C253.624 48.8192 255.377 48.1928 257.192 48.1542H258.192V42.5864H257.264C254.194 42.5864 251.553 44.1568 249.126 47.6549V43.0862H243.7V78.0668ZM225.14 46.5128C229.78 46.5128 232.35 51.5103 232.35 60.5052C232.35 69.3576 229.78 74.4261 225.14 74.4261C220.571 74.4261 218.001 69.3576 218.001 60.5052C218.001 51.5103 220.5 46.5128 225.14 46.5128ZM212.147 60.5052C212.147 72.2843 216.93 79.1375 225.14 79.1375C233.421 79.1375 238.204 72.2843 238.204 60.5052C238.204 48.6541 233.421 41.8005 225.14 41.8005C216.93 41.8005 212.147 48.6541 212.147 60.5052ZM182.95 78.0668V34.143H188.661V47.2266C190.946 43.657 193.515 42.0861 197.228 42.0861C203.01 42.0861 206.579 45.8703 206.579 52.1526V78.0668H200.869V54.2944C200.869 49.7972 199.084 47.5124 195.586 47.5124C191.16 47.5124 188.661 51.0105 188.661 57.1497V78.0668L182.95 78.0668ZM165.746 78.0668H171.457V58.506C171.457 56.864 171.457 55.6507 171.529 55.0794C171.752 53.0852 172.721 51.249 174.241 49.9393C175.67 48.8192 177.423 48.1928 179.238 48.1542H180.238V42.5864H179.31C176.24 42.5864 173.599 44.1568 171.172 47.6549V43.0862H165.746L165.746 78.0668ZM147.828 46.5128C151.683 46.5128 154.325 50.6538 154.753 57.4354H140.404C140.761 50.7248 143.688 46.5128 147.828 46.5128ZM160.179 61.6475C160.107 48.654 155.824 41.9435 147.543 41.9435C139.69 41.9435 134.693 49.1543 134.693 60.5052C134.693 72.4984 139.19 79.1374 147.472 79.1374C154.325 79.1374 158.394 74.8543 159.75 66.3592L154.396 66.0025C153.825 71.0706 150.97 74.4972 147.472 74.4972C142.902 74.4972 140.19 69.7142 140.19 61.6474L160.179 61.6475ZM78.2268 31.0925C78.236 32.0993 78.6425 33.0618 79.3577 33.7705C80.0729 34.4792 81.039 34.8768 82.0459 34.8768C83.0527 34.8768 84.0189 34.4792 84.7341 33.7705C85.4493 33.0618 85.8557 32.0993 85.8649 31.0925C85.8887 30.5762 85.8075 30.0604 85.6263 29.5763C85.4451 29.0923 85.1677 28.65 84.8107 28.2762C84.4537 27.9024 84.0247 27.6049 83.5494 27.4016C83.0742 27.1983 82.5627 27.0935 82.0459 27.0935C81.529 27.0935 81.0175 27.1983 80.5423 27.4016C80.0671 27.6049 79.638 27.9024 79.281 28.2762C78.9241 28.65 78.6466 29.0923 78.4654 29.5763C78.2842 30.0604 78.203 30.5762 78.2268 31.0925ZM79.2259 43.0863V78.0669H85.0087V43.0862L79.2259 43.0863ZM53.0981 76.7105C55.7755 78.2334 58.7987 79.0444 61.8789 79.0659C69.1606 79.0659 74.0865 74.2115 74.0865 67.0017C74.0865 64.0749 73.3011 61.6474 71.1595 57.7926C69.6582 54.9809 67.9143 52.3056 65.9477 49.7972C61.8074 44.1569 60.7365 42.4438 59.9513 39.8735C59.7364 38.9845 59.6167 38.075 59.5943 37.1606C59.5748 36.3729 59.7108 35.5891 59.9945 34.8541C60.2783 34.119 60.7043 33.4471 61.248 32.8769C61.7918 32.3066 62.4426 31.8492 63.1634 31.5309C63.8841 31.2125 64.6606 31.0394 65.4483 31.0214C68.2322 31.0214 70.9452 32.2349 73.8006 34.8765V28.3798C71.1406 26.5334 67.972 25.5604 64.7341 25.5959C57.7382 25.5959 53.1696 30.0936 53.1696 37.0896C53.1696 41.2301 54.526 44.6567 58.238 49.7972L61.0934 53.6516C65.9476 60.3626 67.5899 63.7177 67.5899 66.9301C67.5899 70.7849 64.9485 73.3555 60.9506 73.3555C58.4523 73.3555 55.8821 72.3559 53.0981 70.2141L53.0981 76.7105Z" fill="#191B48"/>
<path d="M97.715 25.571V78.067H92.004V25.571H97.715Z" fill="#191B48"/>
<path d="M29.2831 19.3682C29.5612 19.94 29.8461 20.5155 30.1379 21.0947C34.6559 31.3754 32.5298 37.4671 31.6738 40.3549C29.6388 47.2183 20.6963 53.8921 17.366 58.5555C13.6548 63.7524 13.0168 66.246 13.0168 66.246C17.0522 64.1458 21.5318 63.0423 26.081 63.0277C36.5863 63.2541 41.3636 66.6356 41.3697 66.6248C39.6616 70.3637 36.9158 73.5333 33.4586 75.757C30.0015 77.9806 25.9785 79.1646 21.8679 79.1683C9.79041 79.1683 -6.10352e-05 69.2757 -6.10352e-05 55.738C-6.10352e-05 44.2401 8.91672 30.9366 14.6531 19.3018C19.8209 8.82142 21.8679 0.441732 21.8679 0.0266724C23.741 6.68771 26.2232 13.1622 29.2831 19.3682Z" fill="#191B48"/>
<path d="M27.1791 56.9875C39.7442 56.4323 43.1117 61.2573 43.1734 61.0663C43.6223 59.3276 43.8119 57.5321 43.7362 55.738C43.7362 49.6448 41.185 42.9744 37.997 36.321C37.9895 36.3045 38.088 42.5339 35.4055 47.1992C33.2292 50.8985 30.4486 54.207 27.1791 56.9875Z" fill="#191B48"/>
<path fill-rule="evenodd" clip-rule="evenodd" d="M104.71 78.0668V25.5712H110.421V47.4413C112.134 43.8001 114.775 42.015 118.416 42.015C125.912 42.015 130.481 49.0838 130.481 60.2911C130.481 71.9987 125.984 79.1375 118.631 79.1375C115.133 79.1375 112.277 77.424 110.135 74.1405V78.0668L104.71 78.0668ZM117.417 46.8695C121.986 46.8695 124.77 52.1527 124.77 60.5768C124.77 68.8578 121.843 74.3546 117.346 74.3546C112.991 74.3546 110.278 69.286 110.278 60.7909C110.278 52.0101 112.919 46.8695 117.417 46.8695Z" fill="#191B48"/>
</g>
<defs>
<clipPath id="clip0_76_5312">
<rect width="284.462" height="79.1683" fill="white"/>
</clipPath>
</defs>
</svg>
